<?xml version="1.0" encoding="UTF-8" standalone="no"?>
<svg width="88px" height="89px" viewBox="0 0 88 89" version="1.1" xmlns="http://www.w3.org/2000/svg" xmlns:xlink="http://www.w3.org/1999/xlink" xmlns:sketch="http://www.bohemiancoding.com/sketch/ns">
    <!-- Generator: Sketch 3.3.2 (12043) - http://www.bohemiancoding.com/sketch -->
    <title>diamand_outline_rotate</title>
    <desc>Created with Sketch.</desc>
    <defs></defs>
    <g id="website_done" stroke="none" stroke-width="1" fill="none" fill-rule="evenodd" sketch:type="MSPage">
        <g id="diamand_outline_rotate" sketch:type="MSLayerGroup" transform="translate(-18.500000, -18.027612)" stroke-linecap="square" stroke="#FFFFFF" stroke-width="3">
            <g id="Line-+-Line-Copy" transform="translate(61.000000, 20.000000)" sketch:type="MSShapeGroup">
                <path d="M1.5,6.5 L1.5,0.5" id="Line"></path>
                <path d="M1.5,85.5 L1.5,79.5" id="Line-Copy"></path>
            </g>
            <g id="Line-+-Line-Copy-2" transform="translate(62.500000, 63.000000) rotate(-90.000000) translate(-62.500000, -63.000000) translate(61.000000, 20.000000)" sketch:type="MSShapeGroup">
                <path d="M1.5,6.5 L1.5,0.5" id="Line"></path>
                <path d="M1.5,85.5 L1.5,79.5" id="Line-Copy"></path>
            </g>
            <g id="Line-+-Line-Copy-4-+-Line-+-Line-Copy-3" transform="translate(62.500000, 62.292893) rotate(-45.000000) translate(-62.500000, -62.292893) translate(18.500000, 18.792893)" sketch:type="MSShapeGroup">
                <g id="Line-+-Line-Copy-4" transform="translate(42.000000, 1.000000)">
                    <path d="M1.5,6.5 L1.5,0.5" id="Line"></path>
                    <path d="M1.5,85.5 L1.5,79.5" id="Line-Copy"></path>
                </g>
                <g id="Line-+-Line-Copy-3" transform="translate(44.000000, 44.000000) rotate(-90.000000) translate(-44.000000, -44.000000) translate(41.500000, 0.500000)">
                    <path d="M2.5,6.5 L2.5,0.5" id="Line"></path>
                    <path d="M2.5,85.5 L2.5,79.5" id="Line-Copy"></path>
                </g>
            </g>
        </g>
    </g>
</svg>